<svg width="49" height="48" viewBox="0 0 49 48" fill="none" xmlns="http://www.w3.org/2000/svg">
<path opacity="0.1" d="M31.7949 64.5059C48.9864 64.5059 62.9229 50.5694 62.9229 33.378C62.9229 16.1865 48.9864 2.25 31.7949 2.25C14.6035 2.25 0.666992 16.1865 0.666992 33.378C0.666992 50.5694 14.6035 64.5059 31.7949 64.5059Z" fill="white"/>
<path opacity="0.1" d="M19.7949 46.5059C36.9864 46.5059 50.9229 32.5694 50.9229 15.378C50.9229 -1.81354 36.9864 -15.75 19.7949 -15.75C2.60345 -15.75 -11.333 -1.81354 -11.333 15.378C-11.333 32.5694 2.60345 46.5059 19.7949 46.5059Z" fill="white"/>
<path opacity="0.1" d="M57.8937 35.5355C59.0868 21.1221 48.3698 8.47062 33.9565 7.27746C19.5432 6.08431 6.89164 16.8014 5.69848 31.2147C4.50533 45.628 15.2224 58.2795 29.6357 59.4727C44.049 60.6658 56.7005 49.9488 57.8937 35.5355Z" fill="white"/>
<g clip-path="url(#clip0)">
<mask id="mask0" mask-type="alpha" maskUnits="userSpaceOnUse" x="-4" y="-5" width="65" height="65">
<circle cx="28.667" cy="27.25" r="32" fill="#1A1A1A"/>
</mask>
<g mask="url(#mask0)">
<path d="M22.6945 29.43C22.6945 21.585 28.7545 15.1725 36.4495 14.58C35.287 14.3775 34.102 14.25 32.887 14.25C21.7195 14.25 12.667 23.3025 12.667 34.47C12.667 40.0275 14.917 45.0675 18.547 48.72L27.1795 40.0875C24.412 37.38 22.6945 33.6075 22.6945 29.43Z" fill="#1990FF"/>
<path d="M22.6943 29.43C22.6943 33.6075 24.4193 37.38 27.1868 40.08L47.1143 20.1525C46.9793 20.0175 46.8518 19.8825 46.7168 19.7475C46.7093 19.74 46.7018 19.7325 46.6868 19.725C45.6743 18.78 44.5643 17.94 43.3793 17.2125C43.3118 17.175 43.2518 17.13 43.1843 17.0925C42.8018 16.8675 42.4118 16.6425 42.0068 16.44C41.9993 16.4325 41.9843 16.4325 41.9768 16.425C40.7318 15.795 39.4118 15.3 38.0393 14.9325C37.9493 14.91 37.8593 14.8875 37.7693 14.865C37.3343 14.76 36.8918 14.655 36.4418 14.58C28.7543 15.1725 22.6943 21.585 22.6943 29.43Z" fill="#6BC1FF"/>
<path d="M32.8869 54.6899C44.0544 54.6899 53.1069 45.6374 53.1069 34.4699C53.1069 32.7974 52.8819 31.1774 52.4994 29.6174C52.3944 37.7624 45.7719 44.3399 37.6044 44.3399C33.5469 44.3399 29.8719 42.7124 27.1869 40.0874L18.5469 48.7199C22.2069 52.4024 27.2769 54.6899 32.8869 54.6899Z" fill="#1990FF"/>
<path d="M27.1797 40.08C29.8647 42.705 33.5397 44.3325 37.5972 44.3325C45.7647 44.3325 52.3947 37.755 52.4922 29.61C51.6672 26.2725 50.0172 23.2575 47.7672 20.8125C47.7372 20.7825 47.7147 20.7525 47.6922 20.73C47.5047 20.5275 47.3097 20.34 47.1147 20.1525L27.1797 40.08Z" fill="#6BC1FF"/>
</g>
</g>
<defs>
<clipPath id="clip0">
<rect width="40.44" height="40.44" fill="white" transform="translate(12.667 14.25)"/>
</clipPath>
</defs>
</svg>
