<svg width="103" height="108" viewBox="0 0 103 108" fill="none" xmlns="http://www.w3.org/2000/svg">
<circle cx="50.027" cy="47.6095" r="44.4142" fill="#353535"/>
<ellipse rx="5.43195" ry="5.43195" transform="matrix(-1 0 0 1 10.4055 18.8521)" fill="#353535"/>
<ellipse rx="3.51479" ry="3.51479" transform="matrix(-1 0 0 1 54.5003 104.485)" fill="#353535"/>
<ellipse rx="3.5148" ry="3.51479" transform="matrix(-1 0 0 1 73.0326 3.51479)" fill="#353535"/>
<ellipse rx="3.51479" ry="3.51479" transform="matrix(-1 0 0 1 4.01499 74.4497)" fill="#353535"/>
<ellipse rx="2.55622" ry="2.55621" transform="matrix(-1 0 0 1 96.997 69.6568)" fill="#353535"/>
<ellipse rx="2.55622" ry="2.87574" transform="matrix(-1 0 0 1 99.5532 9.90528)" fill="#353535"/>
<path opacity="0.5" fill-rule="evenodd" clip-rule="evenodd" d="M58.2797 68.525C53.9717 70.3603 49.076 70.9342 44.1479 69.8862C31.4073 67.1767 23.2755 54.6519 25.985 41.9113C28.6945 29.1707 41.2192 21.0389 53.9598 23.7484C66.7004 26.4579 74.8323 38.9827 72.1228 51.7233C70.8755 57.5883 67.5482 62.4767 63.0774 65.7803L71.3817 76.7633L67.0087 80.0697L58.2797 68.525Z" fill="#606060"/>
<path d="M81.6754 94.1999L80.9395 94.7572C79.0607 96.177 76.3899 95.8056 74.9701 93.9268L63.0503 78.1242C61.6305 76.2454 62.0019 73.5745 63.8807 72.1547L64.6166 71.5974C66.4954 70.1776 69.1662 70.549 70.586 72.4279L82.5058 88.2304C83.9204 90.108 83.549 92.7789 81.6754 94.1999Z" fill="#282828"/>
<path d="M57.1578 62.9455C65.8397 58.4753 69.2539 47.8135 64.7837 39.1316C60.3135 30.4498 49.6517 27.0356 40.9699 31.5058C32.288 35.976 28.8738 46.6378 33.344 55.3196C37.8142 64.0015 48.476 67.4157 57.1578 62.9455Z" fill="#353535"/>
<path fill-rule="evenodd" clip-rule="evenodd" d="M41.2674 42.9284C40.3037 41.9524 40.3137 40.38 41.2897 39.4163C42.2657 38.4527 43.8381 38.4627 44.8018 39.4387L49.0066 43.6974L53.0841 39.5675C54.047 38.5923 55.6181 38.5823 56.5933 39.5452C57.5686 40.5081 57.5786 42.0792 56.6157 43.0544L52.4937 47.2293L56.6171 51.4056C57.5808 52.3816 57.5708 53.954 56.5948 54.9177C55.6187 55.8813 54.0463 55.8713 53.0827 54.8953L49.0038 50.764L44.7975 55.0242C43.8347 55.9994 42.2635 56.0094 41.2883 55.0465C40.3131 54.0837 40.3031 52.5125 41.2659 51.5373L45.5166 47.2321L41.2674 42.9284Z" fill="#606060"/>
</svg>
