<svg width="48" height="48" viewBox="0 0 48 48" fill="none" xmlns="http://www.w3.org/2000/svg">
<path opacity="0.1" d="M29.628 60.7559C46.8194 60.7559 60.7559 46.8194 60.7559 29.628C60.7559 12.4365 46.8194 -1.5 29.628 -1.5C12.4365 -1.5 -1.5 12.4365 -1.5 29.628C-1.5 46.8194 12.4365 60.7559 29.628 60.7559Z" fill="white"/>
<path opacity="0.1" d="M55.7267 31.7855C56.9198 17.3721 46.2028 4.72062 31.7895 3.52746C17.3762 2.33431 4.72465 13.0514 3.53149 27.4647C2.33834 41.878 13.0554 54.5295 27.4687 55.7227C41.882 56.9158 54.5335 46.1988 55.7267 31.7855Z" fill="white"/>
<path d="M50.3311 27.3755C51.3276 34.3216 48.4737 41.2383 43.0607 45.6902C37.7243 50.0772 30.0823 51.8993 23.4428 49.688C15.848 47.1525 10.5234 39.9587 10.3524 31.9453C10.2404 26.7504 12.6049 21.7383 16.7974 18.6132C20.6832 15.718 25.996 14.633 30.6189 16.2486C36.0143 18.1355 39.9768 24.0675 38.7798 29.8284C38.2845 32.2047 37.0462 34.298 35.0531 35.7309C33.7972 36.6331 32.3348 37.1873 30.7958 37.323C30.1708 37.376 29.5575 37.3347 28.9384 37.264C28.6259 37.2286 28.5846 36.8689 28.9325 36.8512C35.3951 36.4739 38.5439 29.7577 35.6605 24.2267C33.1309 19.3856 27.4171 17.8112 22.5112 19.6156C15.335 22.2572 12.7405 30.3414 15.4058 37.1343C18.0887 43.9743 24.8757 47.5594 31.9928 47.0405C39.5876 46.2916 45.9795 41.1675 48.7037 34.1093C49.2167 32.5762 49.6235 31.0431 49.8063 29.4275C49.8358 29.1326 49.8712 26.6384 50.3311 27.3755Z" fill="#B8A3E4"/>
<path d="M8.92484 31.8746C7.92832 24.9284 10.7823 18.0118 16.1953 13.5599C21.5317 9.17282 29.1736 7.34489 35.8132 9.56199C43.4079 12.0975 48.7325 19.2913 48.9035 27.3047C49.0156 32.4996 46.651 37.5117 42.4586 40.6369C38.5728 43.5321 33.2599 44.6171 28.637 43.0014C23.2417 41.1145 19.2792 35.1826 20.4762 29.4216C20.9715 27.0453 22.2098 24.952 24.2028 23.5192C25.4588 22.617 26.9211 22.0627 28.4601 21.9271C29.0852 21.874 29.6984 21.9153 30.3176 21.9861C30.6301 22.0214 30.6714 22.3811 30.3235 22.3988C23.8608 22.7821 20.7121 29.4924 23.5955 35.0233C26.1251 39.8644 31.8389 41.4388 36.7448 39.6345C43.9209 36.9928 46.5154 28.9086 43.8502 22.1158C41.1672 15.2758 34.3803 11.6907 27.2631 12.2096C19.6684 12.9584 13.2765 18.0825 10.5523 25.1407C10.0393 26.6738 9.63242 28.2069 9.44963 29.8226C9.41425 30.1174 9.38477 32.6117 8.92484 31.8746Z" fill="#7FBFAF"/>
<path d="M15.1519 32.2815L16.5494 33.0127L16.2841 31.4619L17.4103 30.3592L15.8477 30.1351L15.1519 28.72L14.4561 30.1351L12.8936 30.3592L14.0257 31.4619L13.7545 33.0127L15.1519 32.2815Z" fill="white"/>
<path d="M42.0992 20.5591L43.4967 21.2903L43.2313 19.7395L44.3576 18.6368L42.8009 18.4127L42.0992 16.9976L41.4034 18.4127L39.8408 18.6368L40.973 19.7395L40.7076 21.2903L42.0992 20.5591Z" fill="white"/>
<path d="M32.9009 32.3816L34.4163 33.213L32.9009 34.0445L32.0695 35.5599L31.2381 34.0445L29.7227 33.213L31.2381 32.3816L32.0695 30.8662L32.9009 32.3816Z" fill="white"/>
<path d="M29.2327 11.8616L29.9874 12.2802L29.2327 12.693L28.8199 13.4536L28.4012 12.693L27.6465 12.2802L28.4012 11.8616L28.8199 11.1068L29.2327 11.8616Z" fill="white"/>
<path d="M37.9124 42.9543L38.6671 43.367L37.9124 43.7857L37.4937 44.5404L37.081 43.7857L36.3203 43.367L37.081 42.9543L37.4937 42.1936L37.9124 42.9543Z" fill="white"/>
<path d="M42.5179 29.2092L43.2726 29.6279L42.5179 30.0406L42.0992 30.8013L41.6864 30.0406L40.9258 29.6279L41.6864 29.2092L42.0992 28.4545L42.5179 29.2092Z" fill="white"/>
<path d="M23.2239 42.1935L23.9845 42.6121L23.2239 43.0249L22.8111 43.7856L22.3925 43.0249L21.6377 42.6121L22.3925 42.1935L22.8111 41.4387L23.2239 42.1935Z" fill="white"/>
<path d="M18.9963 38.7912L19.757 39.2039L18.9963 39.6226L18.5836 40.3773L18.1708 39.6226L17.4102 39.2039L18.1708 38.7912L18.5836 38.0305L18.9963 38.7912Z" fill="white"/>
<path d="M20.8772 20.3467L21.6378 20.7595L20.8772 21.1781L20.4644 21.9329L20.0458 21.1781L19.291 20.7595L20.0458 20.3467L20.4644 19.5861L20.8772 20.3467Z" fill="white"/>
<path d="M36.7395 27.6466L37.4943 28.0594L36.7395 28.4722L36.3209 29.2328L35.9081 28.4722L35.1475 28.0594L35.9081 27.6466L36.3209 26.886L36.7395 27.6466Z" fill="white"/>
</svg>
