<svg width="64" height="64" viewBox="0 0 64 64" fill="none" xmlns="http://www.w3.org/2000/svg">
<mask id="mask0" mask-type="alpha" maskUnits="userSpaceOnUse" x="0" y="0" width="64" height="64">
<circle cx="32" cy="32" r="32" fill="#1A1A1A"/>
</mask>
<g mask="url(#mask0)">
<path opacity="0.1" d="M41.5039 86.0079C64.4259 86.0079 83.0079 67.4259 83.0079 44.5039C83.0079 21.5819 64.4259 3 41.5039 3C18.5819 3 0 21.5819 0 44.5039C0 67.4259 18.5819 86.0079 41.5039 86.0079Z" fill="white"/>
<path opacity="0.1" d="M31.5039 73.0079C54.4259 73.0079 73.0079 54.4259 73.0079 31.5039C73.0079 8.58194 54.4259 -10 31.5039 -10C8.58194 -10 -10 8.58194 -10 31.5039C-10 54.4259 8.58194 73.0079 31.5039 73.0079Z" fill="white"/>
<path opacity="0.1" d="M76.3022 47.3805C77.8931 28.1628 63.6037 11.2941 44.386 9.7032C25.1682 8.11233 8.29953 22.4017 6.70865 41.6195C5.11778 60.8372 19.4072 77.7059 38.6249 79.2968C57.8427 80.8877 74.7114 66.5983 76.3022 47.3805Z" fill="white"/>
<path d="M27.18 40.5C27.18 27.84 36.96 17.49 49.38 16.53C47.51 16.2 45.6 16 43.64 16C25.61 16 11 30.61 11 48.64C11 57.61 14.63 65.74 20.49 71.64L34.43 57.7C29.96 53.33 27.18 47.24 27.18 40.5Z" fill="#DD3930"/>
<path d="M27.1797 40.5C27.1797 47.24 29.9597 53.33 34.4297 57.7L66.5997 25.52C66.3797 25.31 66.1797 25.08 65.9597 24.87C65.9397 24.86 65.9297 24.84 65.9097 24.83C64.2797 23.3 62.4897 21.95 60.5697 20.78C60.4697 20.72 60.3597 20.65 60.2597 20.59C59.6397 20.22 59.0097 19.87 58.3597 19.54C58.3397 19.53 58.3297 19.52 58.3097 19.52C56.2997 18.51 54.1697 17.7 51.9497 17.11C51.8097 17.07 51.6597 17.03 51.5197 17C50.8097 16.82 50.0997 16.67 49.3797 16.54C36.9597 17.49 27.1797 27.84 27.1797 40.5Z" fill="#FF5436"/>
<path d="M43.6402 81.27C61.6602 81.27 76.2802 66.6601 76.2802 48.6301C76.2802 45.9301 75.9202 43.31 75.2902 40.8C75.1302 53.95 64.4302 64.5601 51.2402 64.5601C44.6902 64.5601 38.7602 61.94 34.4302 57.69L20.4902 71.64C26.4002 77.59 34.5902 81.27 43.6402 81.27Z" fill="#DD3930"/>
<path d="M34.4297 57.7C38.7697 61.94 44.6997 64.57 51.2397 64.57C64.4297 64.57 75.1197 53.96 75.2897 40.81C73.9597 35.42 71.2897 30.56 67.6597 26.6C67.6197 26.55 67.5797 26.51 67.5297 26.46C67.2297 26.14 66.9097 25.83 66.5997 25.52L34.4297 57.7Z" fill="#FF5436"/>
<path opacity="0.2" d="M34.2196 38.95C34.2196 42.84 31.0696 45.99 27.1796 45.99C23.2896 45.99 20.1396 42.84 20.1396 38.95C20.1396 35.06 23.2896 31.91 27.1796 31.91C31.0696 31.91 34.2196 35.06 34.2196 38.95Z" fill="black"/>
<path opacity="0.2" d="M29.2005 56.87C29.2005 59.28 27.2505 61.23 24.8405 61.23C22.4305 61.23 20.4805 59.28 20.4805 56.87C20.4805 54.46 22.4305 52.51 24.8405 52.51C27.2505 52.51 29.2005 54.46 29.2005 56.87Z" fill="black"/>
<path opacity="0.2" d="M49.6202 58.76C49.6202 60.27 48.4002 61.49 46.8902 61.49C45.3802 61.49 44.1602 60.27 44.1602 58.76C44.1602 57.25 45.3802 56.03 46.8902 56.03C48.4002 56.03 49.6202 57.26 49.6202 58.76Z" fill="black"/>
<path opacity="0.4" d="M51.1104 29.63C51.1104 31.14 49.8904 32.36 48.3804 32.36C46.8704 32.36 45.6504 31.14 45.6504 29.63C45.6504 28.12 46.8704 26.9 48.3804 26.9C49.8904 26.9 51.1104 28.12 51.1104 29.63Z" fill="white"/>
<path d="M43.3701 28.8301C43.3701 30.7801 41.7901 32.3501 39.8501 32.3501C37.9001 32.3501 36.3301 30.7701 36.3301 28.8301C36.3301 26.8801 37.9101 25.3101 39.8501 25.3101C41.8001 25.3101 43.3701 26.8901 43.3701 28.8301Z" fill="#EE783B"/>
<path opacity="0.2" d="M65.1701 61.44C65.1701 63.47 63.5201 65.11 61.5001 65.11C59.4701 65.11 57.8301 63.46 57.8301 61.44C57.8301 59.41 59.4801 57.77 61.5001 57.77C63.5201 57.77 65.1701 59.42 65.1701 61.44Z" fill="black"/>
</g>
</svg>
