<svg width="49" height="48" viewBox="0 0 49 48" fill="none" xmlns="http://www.w3.org/2000/svg">
<mask id="mask0" mask-type="alpha" maskUnits="userSpaceOnUse" x="0" y="0" width="49" height="48">
<circle cx="24.333" cy="24" r="24" fill="#1A1A1A"/>
</mask>
<g mask="url(#mask0)">
<path opacity="0.1" d="M23.961 54.7559C41.1525 54.7559 55.0889 40.8194 55.0889 23.628C55.0889 6.43646 41.1525 -7.5 23.961 -7.5C6.76947 -7.5 -7.16699 6.43646 -7.16699 23.628C-7.16699 40.8194 6.76947 54.7559 23.961 54.7559Z" fill="white"/>
<path opacity="0.1" d="M29.208 57.75C44.3268 57.75 56.583 45.4938 56.583 30.375C56.583 15.2562 44.3268 3 29.208 3C14.0892 3 1.83301 15.2562 1.83301 30.375C1.83301 45.4938 14.0892 57.75 29.208 57.75Z" fill="white"/>
<path opacity="0.1" d="M52.1596 32.2723C53.2089 19.5967 43.784 8.47055 31.1084 7.42125C18.4328 6.37194 7.30665 15.7969 6.25735 28.4725C5.20805 41.148 14.633 52.2742 27.3085 53.3235C39.9841 54.3728 51.1103 44.9479 52.1596 32.2723Z" fill="white"/>
<path d="M20.1306 26.0781C20.1306 18.802 25.754 12.856 32.8852 12.3095C31.8119 12.1185 30.7123 12 29.5863 12C19.2285 12 10.833 20.3955 10.833 30.7533C10.833 35.9091 12.9138 40.5777 16.2852 43.9688L24.2922 35.9618C21.7241 33.4464 20.1306 29.95 20.1306 26.0781Z" fill="#C3C3C3"/>
<path d="M20.1309 26.0781C20.1309 29.9499 21.7309 33.4464 24.2924 35.9552L42.7823 17.4719C42.6572 17.3468 42.5387 17.2217 42.4136 17.0965C42.407 17.09 42.3938 17.0834 42.3872 17.0702C41.4522 16.1944 40.425 15.4109 39.3187 14.7392C39.2595 14.7063 39.2002 14.6734 39.1344 14.6339C38.7788 14.4231 38.4166 14.219 38.0479 14.0346C38.0413 14.0281 38.0281 14.0281 38.0216 14.0215C36.8692 13.442 35.6445 12.9745 34.367 12.6387C34.2814 12.6189 34.1958 12.5926 34.1168 12.5728C33.7086 12.4741 33.3003 12.3819 32.8855 12.3094C25.7476 12.856 20.1309 18.802 20.1309 26.0781Z" fill="#D8D8D8"/>
<path d="M29.5863 49.5C39.9441 49.5 48.3396 41.1045 48.3396 30.7468C48.3396 29.1928 48.1289 27.6914 47.7733 26.2494C47.6811 33.8021 41.531 39.8995 33.9586 39.8995C30.1987 39.8995 26.7878 38.3916 24.2988 35.9553L16.2852 43.9689C19.6829 47.3864 24.3844 49.5 29.5863 49.5Z" fill="#C3C3C3"/>
<path d="M24.292 35.9552C26.781 38.3916 30.1919 39.8995 33.9518 39.8995C41.5308 39.8995 47.6743 33.802 47.7665 26.2494C47.0027 23.1545 45.4685 20.3626 43.3811 18.0843C43.3548 18.058 43.335 18.0316 43.3087 18.0053C43.1375 17.8209 42.9531 17.6431 42.7753 17.4653L24.292 35.9552Z" fill="#D8D8D8"/>
<path opacity="0.2" d="M21.1379 26.2494C21.1379 27.8166 19.8671 29.0874 18.2999 29.0874C16.7328 29.0874 15.4619 27.8166 15.4619 26.2494C15.4619 24.6822 16.7328 23.4114 18.2999 23.4114C19.8671 23.4114 21.1379 24.6822 21.1379 26.2494Z" fill="#2D2B33"/>
<path opacity="0.2" d="M40.8196 27.9811C40.8196 29.5482 39.5487 30.8191 37.9816 30.8191C36.4144 30.8191 35.1436 29.5482 35.1436 27.9811C35.1436 26.4139 36.4144 25.1431 37.9816 25.1431C39.5487 25.1497 40.8196 26.4139 40.8196 27.9811Z" fill="#2D2B33"/>
<path opacity="0.3" d="M42.8808 22.6606C42.8808 23.6879 42.0511 24.5175 41.0239 24.5175C39.9967 24.5175 39.167 23.6879 39.167 22.6606C39.167 21.6334 39.9967 20.8037 41.0239 20.8037C42.0511 20.7972 42.8808 21.6334 42.8808 22.6606Z" fill="#2D2B33"/>
<path opacity="0.3" d="M29.165 23.4178C29.165 24.4451 28.3353 25.2747 27.3081 25.2747C26.2808 25.2747 25.4512 24.4451 25.4512 23.4178C25.4512 22.3906 26.2808 21.561 27.3081 21.561C28.3353 21.5544 29.165 22.3906 29.165 23.4178Z" fill="white"/>
<path opacity="0.6" d="M35.0518 18.4596C35.0518 19.9675 33.8336 21.1857 32.3257 21.1857C30.8178 21.1857 29.5996 19.9675 29.5996 18.4596C29.5996 16.9517 30.8178 15.7335 32.3257 15.7335C33.8336 15.7335 35.0518 16.9583 35.0518 18.4596Z" fill="white"/>
<path opacity="0.3" d="M38.6277 40.3867C38.6277 41.8222 37.4622 42.9877 36.0267 42.9877C34.5913 42.9877 33.4258 41.8222 33.4258 40.3867C33.4258 38.9513 34.5913 37.7858 36.0267 37.7858C37.4688 37.7858 38.6277 38.9513 38.6277 40.3867Z" fill="#2D2B33"/>
<path opacity="0.3" d="M24.5424 39.8995C24.5424 42.1778 22.6921 44.0281 20.4138 44.0281C18.1355 44.0281 16.2852 42.1778 16.2852 39.8995C16.2852 37.6212 18.1355 35.7709 20.4138 35.7709C22.6987 35.7709 24.5424 37.6212 24.5424 39.8995Z" fill="#2D2B33"/>
</g>
</svg>
